<mxfile host="app.diagrams.net" modified="2023-07-06T16:22:20.271Z" agent="Mozilla/5.0 (Macintosh; Intel Mac OS X 10_15_7) AppleWebKit/537.36 (KHTML, like Gecko) Chrome/114.0.0.0 Safari/537.36" etag="B1amr1fEDWYXKnJahHET" version="21.5.2" type="device">
  <diagram name="Page-1" id="d-GbvBrNdY56G-XM4Tbh">
    <mxGraphModel dx="6480" dy="3883" grid="1" gridSize="10" guides="1" tooltips="1" connect="1" arrows="1" fold="1" page="0" pageScale="1" pageWidth="850" pageHeight="1100" math="0" shadow="0">
      <root>
        <mxCell id="0" />
        <mxCell id="1" parent="0" />
        <mxCell id="EugW5KYL0ZaTyMGA_2LX-1" value="Doctor" style="whiteSpace=wrap;html=1;align=center;" parent="1" vertex="1">
          <mxGeometry x="-2500" y="-1610" width="100" height="40" as="geometry" />
        </mxCell>
        <mxCell id="EugW5KYL0ZaTyMGA_2LX-2" value="Doctor&amp;nbsp;&lt;br&gt;ID" style="ellipse;whiteSpace=wrap;html=1;align=center;fontStyle=4;" parent="1" vertex="1">
          <mxGeometry x="-2710" y="-1630" width="100" height="40" as="geometry" />
        </mxCell>
        <mxCell id="EugW5KYL0ZaTyMGA_2LX-3" value="Age" style="ellipse;whiteSpace=wrap;html=1;align=center;dashed=1;" parent="1" vertex="1">
          <mxGeometry x="-2580" y="-1740" width="100" height="40" as="geometry" />
        </mxCell>
        <mxCell id="EugW5KYL0ZaTyMGA_2LX-4" value="Name" style="ellipse;whiteSpace=wrap;html=1;align=center;" parent="1" vertex="1">
          <mxGeometry x="-2680" y="-1700" width="100" height="40" as="geometry" />
        </mxCell>
        <mxCell id="EugW5KYL0ZaTyMGA_2LX-5" value="Address" style="ellipse;whiteSpace=wrap;html=1;align=center;" parent="1" vertex="1">
          <mxGeometry x="-2690" y="-1560" width="100" height="40" as="geometry" />
        </mxCell>
        <mxCell id="EugW5KYL0ZaTyMGA_2LX-6" value="Telephone&lt;br&gt;No" style="ellipse;shape=doubleEllipse;margin=3;whiteSpace=wrap;html=1;align=center;" parent="1" vertex="1">
          <mxGeometry x="-2470" y="-1750" width="100" height="40" as="geometry" />
        </mxCell>
        <mxCell id="EugW5KYL0ZaTyMGA_2LX-7" value="Specialized" style="ellipse;whiteSpace=wrap;html=1;align=center;" parent="1" vertex="1">
          <mxGeometry x="-2620" y="-1510" width="100" height="40" as="geometry" />
        </mxCell>
        <mxCell id="EugW5KYL0ZaTyMGA_2LX-8" value="" style="endArrow=none;html=1;rounded=0;exitX=1;exitY=0;exitDx=0;exitDy=0;entryX=0;entryY=1;entryDx=0;entryDy=0;" parent="1" source="EugW5KYL0ZaTyMGA_2LX-7" target="EugW5KYL0ZaTyMGA_2LX-1" edge="1">
          <mxGeometry relative="1" as="geometry">
            <mxPoint x="-2480" y="-1500" as="sourcePoint" />
            <mxPoint x="-2320" y="-1500" as="targetPoint" />
          </mxGeometry>
        </mxCell>
        <mxCell id="EugW5KYL0ZaTyMGA_2LX-9" value="" style="endArrow=none;html=1;rounded=0;exitX=1;exitY=0.5;exitDx=0;exitDy=0;entryX=0;entryY=0.75;entryDx=0;entryDy=0;" parent="1" source="EugW5KYL0ZaTyMGA_2LX-5" target="EugW5KYL0ZaTyMGA_2LX-1" edge="1">
          <mxGeometry relative="1" as="geometry">
            <mxPoint x="-2480" y="-1500" as="sourcePoint" />
            <mxPoint x="-2320" y="-1500" as="targetPoint" />
          </mxGeometry>
        </mxCell>
        <mxCell id="EugW5KYL0ZaTyMGA_2LX-10" value="" style="endArrow=none;html=1;rounded=0;exitX=1;exitY=0.5;exitDx=0;exitDy=0;entryX=0;entryY=0.25;entryDx=0;entryDy=0;" parent="1" source="EugW5KYL0ZaTyMGA_2LX-2" target="EugW5KYL0ZaTyMGA_2LX-1" edge="1">
          <mxGeometry relative="1" as="geometry">
            <mxPoint x="-2480" y="-1500" as="sourcePoint" />
            <mxPoint x="-2320" y="-1500" as="targetPoint" />
          </mxGeometry>
        </mxCell>
        <mxCell id="EugW5KYL0ZaTyMGA_2LX-11" value="" style="endArrow=none;html=1;rounded=0;exitX=0.942;exitY=0.842;exitDx=0;exitDy=0;exitPerimeter=0;entryX=0;entryY=0;entryDx=0;entryDy=0;" parent="1" source="EugW5KYL0ZaTyMGA_2LX-4" target="EugW5KYL0ZaTyMGA_2LX-1" edge="1">
          <mxGeometry relative="1" as="geometry">
            <mxPoint x="-2480" y="-1500" as="sourcePoint" />
            <mxPoint x="-2320" y="-1500" as="targetPoint" />
          </mxGeometry>
        </mxCell>
        <mxCell id="EugW5KYL0ZaTyMGA_2LX-12" value="" style="endArrow=none;html=1;rounded=0;exitX=0.62;exitY=1.064;exitDx=0;exitDy=0;exitPerimeter=0;entryX=0.25;entryY=0;entryDx=0;entryDy=0;" parent="1" source="EugW5KYL0ZaTyMGA_2LX-3" target="EugW5KYL0ZaTyMGA_2LX-1" edge="1">
          <mxGeometry relative="1" as="geometry">
            <mxPoint x="-2480" y="-1500" as="sourcePoint" />
            <mxPoint x="-2320" y="-1500" as="targetPoint" />
          </mxGeometry>
        </mxCell>
        <mxCell id="EugW5KYL0ZaTyMGA_2LX-13" value="" style="endArrow=none;html=1;rounded=0;exitX=0.309;exitY=0.981;exitDx=0;exitDy=0;exitPerimeter=0;entryX=0.5;entryY=0;entryDx=0;entryDy=0;" parent="1" source="EugW5KYL0ZaTyMGA_2LX-6" target="EugW5KYL0ZaTyMGA_2LX-1" edge="1">
          <mxGeometry relative="1" as="geometry">
            <mxPoint x="-2480" y="-1500" as="sourcePoint" />
            <mxPoint x="-2320" y="-1500" as="targetPoint" />
          </mxGeometry>
        </mxCell>
        <mxCell id="EugW5KYL0ZaTyMGA_2LX-14" value="Treats" style="shape=rhombus;perimeter=rhombusPerimeter;whiteSpace=wrap;html=1;align=center;" parent="1" vertex="1">
          <mxGeometry x="-2240" y="-1620" width="120" height="60" as="geometry" />
        </mxCell>
        <mxCell id="EugW5KYL0ZaTyMGA_2LX-15" value="" style="endArrow=none;html=1;rounded=0;exitX=1;exitY=0.5;exitDx=0;exitDy=0;" parent="1" source="EugW5KYL0ZaTyMGA_2LX-1" target="EugW5KYL0ZaTyMGA_2LX-14" edge="1">
          <mxGeometry relative="1" as="geometry">
            <mxPoint x="-2300" y="-1500" as="sourcePoint" />
            <mxPoint x="-2140" y="-1500" as="targetPoint" />
          </mxGeometry>
        </mxCell>
        <mxCell id="EugW5KYL0ZaTyMGA_2LX-16" value="Patient" style="whiteSpace=wrap;html=1;align=center;" parent="1" vertex="1">
          <mxGeometry x="-1890" y="-1610" width="100" height="40" as="geometry" />
        </mxCell>
        <mxCell id="EugW5KYL0ZaTyMGA_2LX-17" value="" style="endArrow=none;html=1;rounded=0;exitX=1;exitY=0.5;exitDx=0;exitDy=0;entryX=0;entryY=0.5;entryDx=0;entryDy=0;" parent="1" source="EugW5KYL0ZaTyMGA_2LX-70" target="EugW5KYL0ZaTyMGA_2LX-16" edge="1">
          <mxGeometry relative="1" as="geometry">
            <mxPoint x="-2170" y="-1500" as="sourcePoint" />
            <mxPoint x="-2010" y="-1500" as="targetPoint" />
          </mxGeometry>
        </mxCell>
        <mxCell id="EugW5KYL0ZaTyMGA_2LX-18" value="Patient&lt;br&gt;ID" style="ellipse;whiteSpace=wrap;html=1;align=center;fontStyle=4;" parent="1" vertex="1">
          <mxGeometry x="-1970" y="-1760" width="100" height="40" as="geometry" />
        </mxCell>
        <mxCell id="EugW5KYL0ZaTyMGA_2LX-19" value="Address" style="ellipse;whiteSpace=wrap;html=1;align=center;" parent="1" vertex="1">
          <mxGeometry x="-1860" y="-1760" width="100" height="40" as="geometry" />
        </mxCell>
        <mxCell id="EugW5KYL0ZaTyMGA_2LX-20" value="Name" style="ellipse;whiteSpace=wrap;html=1;align=center;" parent="1" vertex="1">
          <mxGeometry x="-1780" y="-1730" width="100" height="40" as="geometry" />
        </mxCell>
        <mxCell id="EugW5KYL0ZaTyMGA_2LX-21" value="Telephone&lt;br&gt;No" style="ellipse;shape=doubleEllipse;margin=3;whiteSpace=wrap;html=1;align=center;" parent="1" vertex="1">
          <mxGeometry x="-1740" y="-1690" width="100" height="40" as="geometry" />
        </mxCell>
        <mxCell id="EugW5KYL0ZaTyMGA_2LX-22" value="Date of&amp;nbsp;&lt;br&gt;Birth" style="ellipse;whiteSpace=wrap;html=1;align=center;" parent="1" vertex="1">
          <mxGeometry x="-1810" y="-1490" width="100" height="40" as="geometry" />
        </mxCell>
        <mxCell id="EugW5KYL0ZaTyMGA_2LX-23" value="" style="endArrow=none;html=1;rounded=0;exitX=0;exitY=1;exitDx=0;exitDy=0;entryX=1;entryY=0;entryDx=0;entryDy=0;" parent="1" source="EugW5KYL0ZaTyMGA_2LX-21" target="EugW5KYL0ZaTyMGA_2LX-16" edge="1">
          <mxGeometry relative="1" as="geometry">
            <mxPoint x="-2080" y="-1500" as="sourcePoint" />
            <mxPoint x="-1920" y="-1500" as="targetPoint" />
          </mxGeometry>
        </mxCell>
        <mxCell id="EugW5KYL0ZaTyMGA_2LX-24" value="" style="endArrow=none;html=1;rounded=0;exitX=0;exitY=1;exitDx=0;exitDy=0;entryX=0.882;entryY=-0.042;entryDx=0;entryDy=0;entryPerimeter=0;" parent="1" source="EugW5KYL0ZaTyMGA_2LX-20" target="EugW5KYL0ZaTyMGA_2LX-16" edge="1">
          <mxGeometry relative="1" as="geometry">
            <mxPoint x="-2080" y="-1500" as="sourcePoint" />
            <mxPoint x="-1920" y="-1500" as="targetPoint" />
          </mxGeometry>
        </mxCell>
        <mxCell id="EugW5KYL0ZaTyMGA_2LX-25" value="" style="endArrow=none;html=1;rounded=0;exitX=0.5;exitY=1;exitDx=0;exitDy=0;entryX=0.75;entryY=0;entryDx=0;entryDy=0;" parent="1" source="EugW5KYL0ZaTyMGA_2LX-19" target="EugW5KYL0ZaTyMGA_2LX-16" edge="1">
          <mxGeometry relative="1" as="geometry">
            <mxPoint x="-2080" y="-1500" as="sourcePoint" />
            <mxPoint x="-1920" y="-1500" as="targetPoint" />
          </mxGeometry>
        </mxCell>
        <mxCell id="EugW5KYL0ZaTyMGA_2LX-26" value="" style="endArrow=none;html=1;rounded=0;exitX=1;exitY=1;exitDx=0;exitDy=0;entryX=0.5;entryY=0;entryDx=0;entryDy=0;" parent="1" source="EugW5KYL0ZaTyMGA_2LX-18" target="EugW5KYL0ZaTyMGA_2LX-16" edge="1">
          <mxGeometry relative="1" as="geometry">
            <mxPoint x="-2080" y="-1500" as="sourcePoint" />
            <mxPoint x="-1920" y="-1500" as="targetPoint" />
          </mxGeometry>
        </mxCell>
        <mxCell id="EugW5KYL0ZaTyMGA_2LX-27" value="Make" style="shape=rhombus;perimeter=rhombusPerimeter;whiteSpace=wrap;html=1;align=center;" parent="1" vertex="1">
          <mxGeometry x="-1900" y="-1390" width="120" height="60" as="geometry" />
        </mxCell>
        <mxCell id="EugW5KYL0ZaTyMGA_2LX-28" value="" style="endArrow=none;html=1;rounded=0;entryX=0.5;entryY=1;entryDx=0;entryDy=0;exitX=0.5;exitY=0;exitDx=0;exitDy=0;" parent="1" source="EugW5KYL0ZaTyMGA_2LX-27" target="EugW5KYL0ZaTyMGA_2LX-16" edge="1">
          <mxGeometry relative="1" as="geometry">
            <mxPoint x="-2080" y="-1480" as="sourcePoint" />
            <mxPoint x="-1920" y="-1480" as="targetPoint" />
          </mxGeometry>
        </mxCell>
        <mxCell id="EugW5KYL0ZaTyMGA_2LX-29" value="Appointment" style="whiteSpace=wrap;html=1;align=center;" parent="1" vertex="1">
          <mxGeometry x="-1890" y="-1160" width="100" height="40" as="geometry" />
        </mxCell>
        <mxCell id="EugW5KYL0ZaTyMGA_2LX-30" value="" style="endArrow=none;html=1;rounded=0;entryX=0.5;entryY=1;entryDx=0;entryDy=0;" parent="1" source="EugW5KYL0ZaTyMGA_2LX-29" target="EugW5KYL0ZaTyMGA_2LX-27" edge="1">
          <mxGeometry relative="1" as="geometry">
            <mxPoint x="-2080" y="-1250" as="sourcePoint" />
            <mxPoint x="-1920" y="-1250" as="targetPoint" />
          </mxGeometry>
        </mxCell>
        <mxCell id="EugW5KYL0ZaTyMGA_2LX-31" value="Appointment&lt;br&gt;Number" style="ellipse;whiteSpace=wrap;html=1;align=center;fontStyle=4;" parent="1" vertex="1">
          <mxGeometry x="-1700" y="-1180" width="100" height="40" as="geometry" />
        </mxCell>
        <mxCell id="EugW5KYL0ZaTyMGA_2LX-36" value="Doctor" style="ellipse;whiteSpace=wrap;html=1;align=center;" parent="1" vertex="1">
          <mxGeometry x="-1680" y="-1120" width="100" height="40" as="geometry" />
        </mxCell>
        <mxCell id="EugW5KYL0ZaTyMGA_2LX-37" value="Location" style="ellipse;whiteSpace=wrap;html=1;align=center;" parent="1" vertex="1">
          <mxGeometry x="-1700" y="-1070" width="100" height="40" as="geometry" />
        </mxCell>
        <mxCell id="EugW5KYL0ZaTyMGA_2LX-38" value="Time &amp;amp; Date" style="ellipse;whiteSpace=wrap;html=1;align=center;" parent="1" vertex="1">
          <mxGeometry x="-1770" y="-1220" width="100" height="40" as="geometry" />
        </mxCell>
        <mxCell id="EugW5KYL0ZaTyMGA_2LX-39" value="Contact&lt;br&gt;number" style="ellipse;shape=doubleEllipse;margin=3;whiteSpace=wrap;html=1;align=center;" parent="1" vertex="1">
          <mxGeometry x="-1760" y="-1030" width="100" height="40" as="geometry" />
        </mxCell>
        <mxCell id="EugW5KYL0ZaTyMGA_2LX-41" value="" style="endArrow=none;html=1;rounded=0;entryX=0.4;entryY=0;entryDx=0;entryDy=0;exitX=0.862;exitY=1.019;exitDx=0;exitDy=0;exitPerimeter=0;entryPerimeter=0;" parent="1" source="EugW5KYL0ZaTyMGA_2LX-29" target="EugW5KYL0ZaTyMGA_2LX-39" edge="1">
          <mxGeometry relative="1" as="geometry">
            <mxPoint x="-1940" y="-1040" as="sourcePoint" />
            <mxPoint x="-1780" y="-1040" as="targetPoint" />
          </mxGeometry>
        </mxCell>
        <mxCell id="EugW5KYL0ZaTyMGA_2LX-42" value="" style="endArrow=none;html=1;rounded=0;entryX=0;entryY=0;entryDx=0;entryDy=0;exitX=1;exitY=1;exitDx=0;exitDy=0;" parent="1" source="EugW5KYL0ZaTyMGA_2LX-29" target="EugW5KYL0ZaTyMGA_2LX-37" edge="1">
          <mxGeometry relative="1" as="geometry">
            <mxPoint x="-1940" y="-1040" as="sourcePoint" />
            <mxPoint x="-1780" y="-1040" as="targetPoint" />
          </mxGeometry>
        </mxCell>
        <mxCell id="EugW5KYL0ZaTyMGA_2LX-43" value="" style="endArrow=none;html=1;rounded=0;entryX=0;entryY=0.5;entryDx=0;entryDy=0;exitX=1;exitY=0.625;exitDx=0;exitDy=0;exitPerimeter=0;" parent="1" source="EugW5KYL0ZaTyMGA_2LX-29" target="EugW5KYL0ZaTyMGA_2LX-36" edge="1">
          <mxGeometry relative="1" as="geometry">
            <mxPoint x="-1940" y="-1040" as="sourcePoint" />
            <mxPoint x="-1780" y="-1040" as="targetPoint" />
          </mxGeometry>
        </mxCell>
        <mxCell id="EugW5KYL0ZaTyMGA_2LX-46" value="" style="endArrow=none;html=1;rounded=0;exitX=0;exitY=0.5;exitDx=0;exitDy=0;entryX=1;entryY=0.25;entryDx=0;entryDy=0;" parent="1" source="EugW5KYL0ZaTyMGA_2LX-31" target="EugW5KYL0ZaTyMGA_2LX-29" edge="1">
          <mxGeometry relative="1" as="geometry">
            <mxPoint x="-1940" y="-1040" as="sourcePoint" />
            <mxPoint x="-1780" y="-1040" as="targetPoint" />
          </mxGeometry>
        </mxCell>
        <mxCell id="EugW5KYL0ZaTyMGA_2LX-47" value="" style="endArrow=none;html=1;rounded=0;exitX=0.023;exitY=0.758;exitDx=0;exitDy=0;exitPerimeter=0;entryX=1;entryY=0;entryDx=0;entryDy=0;" parent="1" source="EugW5KYL0ZaTyMGA_2LX-38" target="EugW5KYL0ZaTyMGA_2LX-29" edge="1">
          <mxGeometry relative="1" as="geometry">
            <mxPoint x="-1940" y="-1040" as="sourcePoint" />
            <mxPoint x="-1780" y="-1040" as="targetPoint" />
          </mxGeometry>
        </mxCell>
        <mxCell id="EugW5KYL0ZaTyMGA_2LX-48" value="Date of&amp;nbsp;&lt;br&gt;Birth" style="ellipse;whiteSpace=wrap;html=1;align=center;" parent="1" vertex="1">
          <mxGeometry x="-2370" y="-1730" width="100" height="40" as="geometry" />
        </mxCell>
        <mxCell id="EugW5KYL0ZaTyMGA_2LX-49" value="" style="endArrow=none;html=1;rounded=0;entryX=0;entryY=1;entryDx=0;entryDy=0;exitX=0.75;exitY=0;exitDx=0;exitDy=0;" parent="1" source="EugW5KYL0ZaTyMGA_2LX-1" target="EugW5KYL0ZaTyMGA_2LX-48" edge="1">
          <mxGeometry relative="1" as="geometry">
            <mxPoint x="-2570" y="-1550" as="sourcePoint" />
            <mxPoint x="-2410" y="-1550" as="targetPoint" />
          </mxGeometry>
        </mxCell>
        <mxCell id="EugW5KYL0ZaTyMGA_2LX-53" value="Payments" style="shape=ext;margin=3;double=1;whiteSpace=wrap;html=1;align=center;" parent="1" vertex="1">
          <mxGeometry x="-1470" y="-1380" width="100" height="40" as="geometry" />
        </mxCell>
        <mxCell id="EugW5KYL0ZaTyMGA_2LX-56" value="Mode of&lt;br&gt;payments" style="ellipse;whiteSpace=wrap;html=1;align=center;" parent="1" vertex="1">
          <mxGeometry x="-1280" y="-1380" width="100" height="40" as="geometry" />
        </mxCell>
        <mxCell id="EugW5KYL0ZaTyMGA_2LX-57" value="" style="endArrow=none;html=1;rounded=0;exitX=0;exitY=0.5;exitDx=0;exitDy=0;entryX=1;entryY=0.5;entryDx=0;entryDy=0;" parent="1" source="EugW5KYL0ZaTyMGA_2LX-56" target="EugW5KYL0ZaTyMGA_2LX-53" edge="1">
          <mxGeometry relative="1" as="geometry">
            <mxPoint x="-1440" y="-1370" as="sourcePoint" />
            <mxPoint x="-1280" y="-1370" as="targetPoint" />
          </mxGeometry>
        </mxCell>
        <mxCell id="EugW5KYL0ZaTyMGA_2LX-63" value="Age" style="ellipse;whiteSpace=wrap;html=1;align=center;dashed=1;" parent="1" vertex="1">
          <mxGeometry x="-2030" y="-1530" width="100" height="40" as="geometry" />
        </mxCell>
        <mxCell id="EugW5KYL0ZaTyMGA_2LX-64" value="" style="endArrow=none;html=1;rounded=0;exitX=0.135;exitY=0.993;exitDx=0;exitDy=0;entryX=1;entryY=0;entryDx=0;entryDy=0;exitPerimeter=0;" parent="1" source="EugW5KYL0ZaTyMGA_2LX-16" target="EugW5KYL0ZaTyMGA_2LX-63" edge="1">
          <mxGeometry relative="1" as="geometry">
            <mxPoint x="-1920" y="-1490" as="sourcePoint" />
            <mxPoint x="-1760" y="-1490" as="targetPoint" />
          </mxGeometry>
        </mxCell>
        <mxCell id="EugW5KYL0ZaTyMGA_2LX-65" value="" style="endArrow=none;html=1;rounded=0;exitX=0.854;exitY=1.081;exitDx=0;exitDy=0;entryX=0;entryY=0;entryDx=0;entryDy=0;exitPerimeter=0;" parent="1" source="EugW5KYL0ZaTyMGA_2LX-16" target="EugW5KYL0ZaTyMGA_2LX-22" edge="1">
          <mxGeometry relative="1" as="geometry">
            <mxPoint x="-1920" y="-1490" as="sourcePoint" />
            <mxPoint x="-1760" y="-1490" as="targetPoint" />
          </mxGeometry>
        </mxCell>
        <mxCell id="EugW5KYL0ZaTyMGA_2LX-66" value="Heads" style="shape=rhombus;perimeter=rhombusPerimeter;whiteSpace=wrap;html=1;align=center;" parent="1" vertex="1">
          <mxGeometry x="-2210" y="-1310" width="120" height="60" as="geometry" />
        </mxCell>
        <mxCell id="EugW5KYL0ZaTyMGA_2LX-67" value="" style="endArrow=none;html=1;rounded=0;entryX=0;entryY=0.5;entryDx=0;entryDy=0;exitX=0.5;exitY=1;exitDx=0;exitDy=0;" parent="1" source="EugW5KYL0ZaTyMGA_2LX-66" target="EugW5KYL0ZaTyMGA_2LX-29" edge="1">
          <mxGeometry relative="1" as="geometry">
            <mxPoint x="-2230" y="-1310" as="sourcePoint" />
            <mxPoint x="-2070" y="-1310" as="targetPoint" />
            <Array as="points">
              <mxPoint x="-2150" y="-1140" />
            </Array>
          </mxGeometry>
        </mxCell>
        <mxCell id="EugW5KYL0ZaTyMGA_2LX-68" value="" style="endArrow=none;html=1;rounded=0;exitX=0.888;exitY=1.053;exitDx=0;exitDy=0;exitPerimeter=0;entryX=0.5;entryY=0;entryDx=0;entryDy=0;" parent="1" source="EugW5KYL0ZaTyMGA_2LX-1" target="EugW5KYL0ZaTyMGA_2LX-66" edge="1">
          <mxGeometry relative="1" as="geometry">
            <mxPoint x="-2320" y="-1460" as="sourcePoint" />
            <mxPoint x="-2160" y="-1460" as="targetPoint" />
            <Array as="points">
              <mxPoint x="-2411" y="-1360" />
              <mxPoint x="-2150" y="-1360" />
            </Array>
          </mxGeometry>
        </mxCell>
        <mxCell id="EugW5KYL0ZaTyMGA_2LX-69" value="n" style="text;html=1;align=center;verticalAlign=middle;resizable=0;points=[];autosize=1;strokeColor=none;fillColor=none;" parent="1" vertex="1">
          <mxGeometry x="-2400" y="-1610" width="30" height="30" as="geometry" />
        </mxCell>
        <mxCell id="EugW5KYL0ZaTyMGA_2LX-71" value="" style="endArrow=none;html=1;rounded=0;exitX=1;exitY=0.5;exitDx=0;exitDy=0;entryX=1.016;entryY=0.345;entryDx=0;entryDy=0;entryPerimeter=0;" parent="1" source="EugW5KYL0ZaTyMGA_2LX-14" target="EugW5KYL0ZaTyMGA_2LX-70" edge="1">
          <mxGeometry relative="1" as="geometry">
            <mxPoint x="-2120" y="-1590" as="sourcePoint" />
            <mxPoint x="-1890" y="-1590" as="targetPoint" />
          </mxGeometry>
        </mxCell>
        <mxCell id="EugW5KYL0ZaTyMGA_2LX-70" value="m" style="text;html=1;align=center;verticalAlign=middle;resizable=0;points=[];autosize=1;strokeColor=none;fillColor=none;" parent="1" vertex="1">
          <mxGeometry x="-1920" y="-1600" width="30" height="30" as="geometry" />
        </mxCell>
        <mxCell id="EugW5KYL0ZaTyMGA_2LX-72" value="1" style="text;html=1;align=center;verticalAlign=middle;resizable=0;points=[];autosize=1;strokeColor=none;fillColor=none;" parent="1" vertex="1">
          <mxGeometry x="-1845" y="-1572" width="30" height="30" as="geometry" />
        </mxCell>
        <mxCell id="EugW5KYL0ZaTyMGA_2LX-73" value="m" style="text;html=1;align=center;verticalAlign=middle;resizable=0;points=[];autosize=1;strokeColor=none;fillColor=none;" parent="1" vertex="1">
          <mxGeometry x="-1845" y="-1182" width="30" height="30" as="geometry" />
        </mxCell>
        <mxCell id="EugW5KYL0ZaTyMGA_2LX-74" value="m" style="text;html=1;align=center;verticalAlign=middle;resizable=0;points=[];autosize=1;strokeColor=none;fillColor=none;" parent="1" vertex="1">
          <mxGeometry x="-1915" y="-1182" width="30" height="30" as="geometry" />
        </mxCell>
        <mxCell id="EugW5KYL0ZaTyMGA_2LX-76" value="Schedule&amp;nbsp;&lt;br&gt;by" style="ellipse;whiteSpace=wrap;html=1;align=center;rotation=0;" parent="1" vertex="1">
          <mxGeometry x="-1850" y="-1000" width="100" height="40" as="geometry" />
        </mxCell>
        <mxCell id="EugW5KYL0ZaTyMGA_2LX-77" value="" style="endArrow=none;html=1;rounded=0;exitX=0.599;exitY=1.046;exitDx=0;exitDy=0;exitPerimeter=0;entryX=0.433;entryY=0.032;entryDx=0;entryDy=0;entryPerimeter=0;" parent="1" source="EugW5KYL0ZaTyMGA_2LX-29" target="EugW5KYL0ZaTyMGA_2LX-76" edge="1">
          <mxGeometry relative="1" as="geometry">
            <mxPoint x="-1940" y="-1000" as="sourcePoint" />
            <mxPoint x="-1780" y="-1000" as="targetPoint" />
          </mxGeometry>
        </mxCell>
        <mxCell id="EugW5KYL0ZaTyMGA_2LX-79" value="Payment&lt;br&gt;ID" style="ellipse;whiteSpace=wrap;html=1;align=center;" parent="1" vertex="1">
          <mxGeometry x="-1390" y="-1270" width="100" height="40" as="geometry" />
        </mxCell>
        <mxCell id="EugW5KYL0ZaTyMGA_2LX-80" value="" style="endArrow=none;html=1;rounded=0;exitX=0.75;exitY=1;exitDx=0;exitDy=0;entryX=0.229;entryY=0.099;entryDx=0;entryDy=0;entryPerimeter=0;" parent="1" source="EugW5KYL0ZaTyMGA_2LX-53" target="EugW5KYL0ZaTyMGA_2LX-79" edge="1">
          <mxGeometry relative="1" as="geometry">
            <mxPoint x="-1420" y="-1330" as="sourcePoint" />
            <mxPoint x="-1260" y="-1330" as="targetPoint" />
          </mxGeometry>
        </mxCell>
        <mxCell id="EugW5KYL0ZaTyMGA_2LX-81" value="1" style="text;html=1;align=center;verticalAlign=middle;resizable=0;points=[];autosize=1;strokeColor=none;fillColor=none;" parent="1" vertex="1">
          <mxGeometry x="-2435" y="-1572" width="30" height="30" as="geometry" />
        </mxCell>
        <mxCell id="7mdUaZeFdzghapmrV5Iv-1" value="records" style="shape=rhombus;perimeter=rhombusPerimeter;whiteSpace=wrap;html=1;align=center;" vertex="1" parent="1">
          <mxGeometry x="-2520" y="-1340" width="120" height="60" as="geometry" />
        </mxCell>
        <mxCell id="7mdUaZeFdzghapmrV5Iv-2" value="" style="endArrow=none;html=1;rounded=0;exitX=0.5;exitY=0;exitDx=0;exitDy=0;entryX=0.403;entryY=0.982;entryDx=0;entryDy=0;entryPerimeter=0;" edge="1" parent="1" source="7mdUaZeFdzghapmrV5Iv-1" target="EugW5KYL0ZaTyMGA_2LX-1">
          <mxGeometry relative="1" as="geometry">
            <mxPoint x="-2390" y="-1440" as="sourcePoint" />
            <mxPoint x="-2230" y="-1440" as="targetPoint" />
          </mxGeometry>
        </mxCell>
        <mxCell id="7mdUaZeFdzghapmrV5Iv-3" value="Diagnosis" style="whiteSpace=wrap;html=1;align=center;" vertex="1" parent="1">
          <mxGeometry x="-2870" y="-1330" width="100" height="40" as="geometry" />
        </mxCell>
        <mxCell id="7mdUaZeFdzghapmrV5Iv-4" value="" style="endArrow=none;html=1;rounded=0;exitX=1;exitY=0.5;exitDx=0;exitDy=0;entryX=0;entryY=0.5;entryDx=0;entryDy=0;" edge="1" parent="1" source="7mdUaZeFdzghapmrV5Iv-3" target="7mdUaZeFdzghapmrV5Iv-1">
          <mxGeometry relative="1" as="geometry">
            <mxPoint x="-2610" y="-1280" as="sourcePoint" />
            <mxPoint x="-2450" y="-1280" as="targetPoint" />
          </mxGeometry>
        </mxCell>
        <mxCell id="7mdUaZeFdzghapmrV5Iv-5" value="Diagnosis&lt;br&gt;ID" style="ellipse;whiteSpace=wrap;html=1;align=center;fontStyle=4;" vertex="1" parent="1">
          <mxGeometry x="-2860" y="-1200" width="100" height="40" as="geometry" />
        </mxCell>
        <mxCell id="7mdUaZeFdzghapmrV5Iv-6" value="Last&lt;br&gt;Appointment" style="ellipse;whiteSpace=wrap;html=1;align=center;" vertex="1" parent="1">
          <mxGeometry x="-3000" y="-1222" width="100" height="40" as="geometry" />
        </mxCell>
        <mxCell id="7mdUaZeFdzghapmrV5Iv-7" value="" style="endArrow=none;html=1;rounded=0;exitX=0;exitY=1;exitDx=0;exitDy=0;entryX=1;entryY=0;entryDx=0;entryDy=0;" edge="1" parent="1" source="7mdUaZeFdzghapmrV5Iv-3" target="7mdUaZeFdzghapmrV5Iv-6">
          <mxGeometry relative="1" as="geometry">
            <mxPoint x="-2910" y="-1190" as="sourcePoint" />
            <mxPoint x="-2750" y="-1190" as="targetPoint" />
          </mxGeometry>
        </mxCell>
        <mxCell id="7mdUaZeFdzghapmrV5Iv-8" value="" style="endArrow=none;html=1;rounded=0;exitX=0.5;exitY=1;exitDx=0;exitDy=0;entryX=0.5;entryY=0;entryDx=0;entryDy=0;" edge="1" parent="1" source="7mdUaZeFdzghapmrV5Iv-3" target="7mdUaZeFdzghapmrV5Iv-5">
          <mxGeometry relative="1" as="geometry">
            <mxPoint x="-2910" y="-1190" as="sourcePoint" />
            <mxPoint x="-2750" y="-1190" as="targetPoint" />
          </mxGeometry>
        </mxCell>
        <mxCell id="7mdUaZeFdzghapmrV5Iv-9" value="" style="endArrow=none;html=1;rounded=0;exitX=1;exitY=0.5;exitDx=0;exitDy=0;entryX=0;entryY=0.5;entryDx=0;entryDy=0;" edge="1" parent="1" source="EugW5KYL0ZaTyMGA_2LX-27" target="EugW5KYL0ZaTyMGA_2LX-53">
          <mxGeometry relative="1" as="geometry">
            <mxPoint x="-1770" y="-1320" as="sourcePoint" />
            <mxPoint x="-1610" y="-1320" as="targetPoint" />
            <Array as="points">
              <mxPoint x="-1600" y="-1360" />
            </Array>
          </mxGeometry>
        </mxCell>
        <mxCell id="7mdUaZeFdzghapmrV5Iv-10" value="" style="triangle;whiteSpace=wrap;html=1;rotation=-180;" vertex="1" parent="1">
          <mxGeometry x="-1580" y="-1625" width="60" height="80" as="geometry" />
        </mxCell>
        <mxCell id="7mdUaZeFdzghapmrV5Iv-11" value="" style="endArrow=none;html=1;rounded=0;exitX=1;exitY=0.5;exitDx=0;exitDy=0;entryX=1;entryY=0.5;entryDx=0;entryDy=0;" edge="1" parent="1" source="EugW5KYL0ZaTyMGA_2LX-16" target="7mdUaZeFdzghapmrV5Iv-10">
          <mxGeometry relative="1" as="geometry">
            <mxPoint x="-1570" y="-1520" as="sourcePoint" />
            <mxPoint x="-1410" y="-1520" as="targetPoint" />
          </mxGeometry>
        </mxCell>
        <mxCell id="7mdUaZeFdzghapmrV5Iv-12" value="Addmited&lt;br&gt;Patient" style="whiteSpace=wrap;html=1;align=center;" vertex="1" parent="1">
          <mxGeometry x="-1440" y="-1720" width="100" height="40" as="geometry" />
        </mxCell>
        <mxCell id="7mdUaZeFdzghapmrV5Iv-14" value="out&lt;br&gt;patient" style="whiteSpace=wrap;html=1;align=center;" vertex="1" parent="1">
          <mxGeometry x="-1430" y="-1540" width="100" height="40" as="geometry" />
        </mxCell>
        <mxCell id="7mdUaZeFdzghapmrV5Iv-15" value="" style="endArrow=none;html=1;rounded=0;entryX=0;entryY=0.5;entryDx=0;entryDy=0;exitX=0.003;exitY=-0.005;exitDx=0;exitDy=0;exitPerimeter=0;" edge="1" parent="1" source="7mdUaZeFdzghapmrV5Iv-10" target="7mdUaZeFdzghapmrV5Iv-14">
          <mxGeometry relative="1" as="geometry">
            <mxPoint x="-1570" y="-1520" as="sourcePoint" />
            <mxPoint x="-1410" y="-1520" as="targetPoint" />
          </mxGeometry>
        </mxCell>
        <mxCell id="7mdUaZeFdzghapmrV5Iv-16" value="" style="endArrow=none;html=1;rounded=0;entryX=0;entryY=1;entryDx=0;entryDy=0;exitX=-0.001;exitY=0.992;exitDx=0;exitDy=0;exitPerimeter=0;" edge="1" parent="1" source="7mdUaZeFdzghapmrV5Iv-10" target="7mdUaZeFdzghapmrV5Iv-12">
          <mxGeometry relative="1" as="geometry">
            <mxPoint x="-1520" y="-1630" as="sourcePoint" />
            <mxPoint x="-1410" y="-1520" as="targetPoint" />
          </mxGeometry>
        </mxCell>
        <mxCell id="7mdUaZeFdzghapmrV5Iv-17" value="is&amp;nbsp;&lt;br&gt;assigned" style="shape=rhombus;perimeter=rhombusPerimeter;whiteSpace=wrap;html=1;align=center;" vertex="1" parent="1">
          <mxGeometry x="-1180" y="-1730" width="120" height="60" as="geometry" />
        </mxCell>
        <mxCell id="7mdUaZeFdzghapmrV5Iv-18" value="" style="endArrow=none;html=1;rounded=0;exitX=1;exitY=0.5;exitDx=0;exitDy=0;" edge="1" parent="1" source="7mdUaZeFdzghapmrV5Iv-12" target="7mdUaZeFdzghapmrV5Iv-17">
          <mxGeometry relative="1" as="geometry">
            <mxPoint x="-1450" y="-1540" as="sourcePoint" />
            <mxPoint x="-1290" y="-1540" as="targetPoint" />
          </mxGeometry>
        </mxCell>
        <mxCell id="7mdUaZeFdzghapmrV5Iv-19" value="Room" style="whiteSpace=wrap;html=1;align=center;" vertex="1" parent="1">
          <mxGeometry x="-1170" y="-1590" width="100" height="40" as="geometry" />
        </mxCell>
        <mxCell id="7mdUaZeFdzghapmrV5Iv-20" value="" style="endArrow=none;html=1;rounded=0;entryX=0.5;entryY=0;entryDx=0;entryDy=0;exitX=0.5;exitY=1;exitDx=0;exitDy=0;" edge="1" parent="1" source="7mdUaZeFdzghapmrV5Iv-17" target="7mdUaZeFdzghapmrV5Iv-19">
          <mxGeometry relative="1" as="geometry">
            <mxPoint x="-1260" y="-1630" as="sourcePoint" />
            <mxPoint x="-1100" y="-1630" as="targetPoint" />
          </mxGeometry>
        </mxCell>
        <mxCell id="7mdUaZeFdzghapmrV5Iv-21" value="look&lt;br&gt;after" style="shape=rhombus;perimeter=rhombusPerimeter;whiteSpace=wrap;html=1;align=center;" vertex="1" parent="1">
          <mxGeometry x="-1450" y="-1860" width="120" height="60" as="geometry" />
        </mxCell>
        <mxCell id="7mdUaZeFdzghapmrV5Iv-22" value="" style="endArrow=none;html=1;rounded=0;exitX=0.5;exitY=1;exitDx=0;exitDy=0;entryX=0.5;entryY=0;entryDx=0;entryDy=0;" edge="1" parent="1" source="7mdUaZeFdzghapmrV5Iv-21" target="7mdUaZeFdzghapmrV5Iv-12">
          <mxGeometry relative="1" as="geometry">
            <mxPoint x="-1260" y="-1720" as="sourcePoint" />
            <mxPoint x="-1100" y="-1720" as="targetPoint" />
          </mxGeometry>
        </mxCell>
        <mxCell id="7mdUaZeFdzghapmrV5Iv-23" value="Nurse" style="whiteSpace=wrap;html=1;align=center;" vertex="1" parent="1">
          <mxGeometry x="-1250" y="-1850" width="100" height="40" as="geometry" />
        </mxCell>
        <mxCell id="7mdUaZeFdzghapmrV5Iv-24" value="" style="endArrow=none;html=1;rounded=0;entryX=0;entryY=0.5;entryDx=0;entryDy=0;exitX=1;exitY=0.5;exitDx=0;exitDy=0;" edge="1" parent="1" source="7mdUaZeFdzghapmrV5Iv-21" target="7mdUaZeFdzghapmrV5Iv-23">
          <mxGeometry relative="1" as="geometry">
            <mxPoint x="-1350" y="-1810" as="sourcePoint" />
            <mxPoint x="-1150" y="-1880" as="targetPoint" />
          </mxGeometry>
        </mxCell>
        <mxCell id="7mdUaZeFdzghapmrV5Iv-25" value="Diagnosis&lt;br&gt;with" style="shape=rhombus;perimeter=rhombusPerimeter;whiteSpace=wrap;html=1;align=center;" vertex="1" parent="1">
          <mxGeometry x="-2880" y="-1500" width="120" height="60" as="geometry" />
        </mxCell>
        <mxCell id="7mdUaZeFdzghapmrV5Iv-26" value="" style="endArrow=none;html=1;rounded=0;exitX=0.5;exitY=1;exitDx=0;exitDy=0;entryX=0.5;entryY=0;entryDx=0;entryDy=0;" edge="1" parent="1" source="7mdUaZeFdzghapmrV5Iv-25" target="7mdUaZeFdzghapmrV5Iv-3">
          <mxGeometry relative="1" as="geometry">
            <mxPoint x="-2870" y="-1390" as="sourcePoint" />
            <mxPoint x="-2710" y="-1390" as="targetPoint" />
          </mxGeometry>
        </mxCell>
        <mxCell id="7mdUaZeFdzghapmrV5Iv-27" value="" style="endArrow=none;html=1;rounded=0;exitX=0.5;exitY=0;exitDx=0;exitDy=0;entryX=0.003;entryY=0.141;entryDx=0;entryDy=0;entryPerimeter=0;" edge="1" parent="1" source="7mdUaZeFdzghapmrV5Iv-25" target="EugW5KYL0ZaTyMGA_2LX-16">
          <mxGeometry relative="1" as="geometry">
            <mxPoint x="-2560" y="-1720" as="sourcePoint" />
            <mxPoint x="-2400" y="-1720" as="targetPoint" />
            <Array as="points">
              <mxPoint x="-2820" y="-1800" />
              <mxPoint x="-2000" y="-1800" />
              <mxPoint x="-2000" y="-1604" />
            </Array>
          </mxGeometry>
        </mxCell>
      </root>
    </mxGraphModel>
  </diagram>
</mxfile>
